<svg width="1141" height="538" viewBox="0 0 1141 538" fill="none" xmlns="http://www.w3.org/2000/svg">
<g filter="url(#filter0_d_2014_87)">
<path d="M204.101 202.5C204.101 241.023 204.101 332.548 204.101 371.071C204.101 441.896 261.515 499.311 332.341 499.311H385.125" stroke="url(#paint0_linear_2014_87)" stroke-width="2.95937" stroke-linecap="round"/>
<path d="M204 130.321C204 59.4513 132.955 2 45.3153 2L-20 2" stroke="url(#paint1_linear_2014_87)" stroke-width="2.95937" stroke-linecap="round"/>
<rect width="3" height="279" rx="1.5" transform="matrix(0 -1 -1 0 598 501)" fill="url(#paint2_linear_2014_87)"/>
<rect width="3" height="336" rx="1.5" transform="matrix(0 -1 -1 0 1024 502)" fill="url(#paint3_linear_2014_87)"/>
<rect width="3" height="0.0001" rx="5e-05" transform="matrix(0 -1 -1 0 1124 502)" fill="url(#paint4_linear_2014_87)"/>
<g filter="url(#filter1_f_2014_87)">
<rect x="630" y="487" width="30" height="23" rx="11.5" fill="#DD7DF7"/>
</g>
<g filter="url(#filter2_f_2014_87)">
<circle cx="645" cy="499" r="7" fill="white"/>
</g>
<g filter="url(#filter3_f_2014_87)">
<rect x="187" y="155" width="30" height="23" rx="11.5" fill="#DD7DF7"/>
</g>
<g filter="url(#filter4_f_2014_87)">
<circle cx="202" cy="167" r="7" fill="white"/>
</g>
<g filter="url(#filter5_f_2014_87)">
<rect x="1062" y="487" width="30" height="23" rx="11.5" fill="#DD7DF7"/>
</g>
<g filter="url(#filter6_f_2014_87)">
<circle cx="1077" cy="499" r="7" fill="white"/>
</g>
<path d="M588.278 449V437.364H590.034V447.489H595.307V449H588.278ZM600.529 449.176C599.711 449.176 598.997 448.989 598.387 448.614C597.778 448.239 597.304 447.714 596.967 447.04C596.63 446.366 596.461 445.578 596.461 444.676C596.461 443.771 596.63 442.979 596.967 442.301C597.304 441.623 597.778 441.097 598.387 440.722C598.997 440.347 599.711 440.159 600.529 440.159C601.348 440.159 602.062 440.347 602.671 440.722C603.281 441.097 603.755 441.623 604.092 442.301C604.429 442.979 604.598 443.771 604.598 444.676C604.598 445.578 604.429 446.366 604.092 447.04C603.755 447.714 603.281 448.239 602.671 448.614C602.062 448.989 601.348 449.176 600.529 449.176ZM600.535 447.75C601.065 447.75 601.505 447.61 601.853 447.33C602.202 447.049 602.459 446.676 602.626 446.21C602.796 445.744 602.882 445.231 602.882 444.67C602.882 444.114 602.796 443.602 602.626 443.136C602.459 442.667 602.202 442.29 601.853 442.006C601.505 441.722 601.065 441.58 600.535 441.58C600.001 441.58 599.558 441.722 599.206 442.006C598.857 442.29 598.598 442.667 598.427 443.136C598.26 443.602 598.177 444.114 598.177 444.67C598.177 445.231 598.26 445.744 598.427 446.21C598.598 446.676 598.857 447.049 599.206 447.33C599.558 447.61 600.001 447.75 600.535 447.75ZM609.441 449.17C608.736 449.17 608.108 448.991 607.555 448.631C607.005 448.267 606.574 447.75 606.259 447.08C605.949 446.405 605.793 445.597 605.793 444.653C605.793 443.71 605.95 442.903 606.265 442.233C606.583 441.562 607.019 441.049 607.572 440.693C608.125 440.337 608.752 440.159 609.452 440.159C609.994 440.159 610.43 440.25 610.759 440.432C611.092 440.61 611.35 440.818 611.532 441.057C611.717 441.295 611.861 441.506 611.964 441.688H612.066V437.364H613.765V449H612.106V447.642H611.964C611.861 447.828 611.714 448.04 611.521 448.278C611.331 448.517 611.07 448.725 610.736 448.903C610.403 449.081 609.971 449.17 609.441 449.17ZM609.816 447.722C610.305 447.722 610.717 447.593 611.055 447.335C611.396 447.074 611.653 446.712 611.827 446.25C612.005 445.788 612.094 445.25 612.094 444.636C612.094 444.03 612.007 443.5 611.833 443.045C611.659 442.591 611.403 442.237 611.066 441.983C610.729 441.729 610.312 441.602 609.816 441.602C609.305 441.602 608.878 441.735 608.538 442C608.197 442.265 607.939 442.627 607.765 443.085C607.594 443.544 607.509 444.061 607.509 444.636C607.509 445.22 607.596 445.744 607.771 446.21C607.945 446.676 608.202 447.045 608.543 447.318C608.888 447.587 609.312 447.722 609.816 447.722ZM615.87 449V440.273H617.568V449H615.87ZM616.728 438.926C616.432 438.926 616.178 438.828 615.966 438.631C615.758 438.43 615.654 438.191 615.654 437.915C615.654 437.634 615.758 437.396 615.966 437.199C616.178 436.998 616.432 436.898 616.728 436.898C617.023 436.898 617.275 436.998 617.483 437.199C617.695 437.396 617.801 437.634 617.801 437.915C617.801 438.191 617.695 438.43 617.483 438.631C617.275 438.828 617.023 438.926 616.728 438.926ZM621.233 443.818V449H619.534V440.273H621.165V441.693H621.273C621.473 441.231 621.788 440.86 622.216 440.58C622.648 440.299 623.191 440.159 623.846 440.159C624.441 440.159 624.962 440.284 625.409 440.534C625.856 440.78 626.202 441.148 626.449 441.636C626.695 442.125 626.818 442.729 626.818 443.449V449H625.119V443.653C625.119 443.021 624.954 442.527 624.625 442.17C624.295 441.811 623.843 441.631 623.267 441.631C622.873 441.631 622.523 441.716 622.216 441.886C621.913 442.057 621.672 442.307 621.494 442.636C621.32 442.962 621.233 443.356 621.233 443.818ZM632.436 452.455C631.742 452.455 631.146 452.364 630.646 452.182C630.15 452 629.744 451.759 629.43 451.46C629.115 451.161 628.881 450.833 628.725 450.477L630.186 449.875C630.288 450.042 630.424 450.218 630.595 450.403C630.769 450.593 631.004 450.754 631.299 450.886C631.598 451.019 631.983 451.085 632.453 451.085C633.096 451.085 633.629 450.928 634.049 450.614C634.47 450.303 634.68 449.807 634.68 449.125V447.409H634.572C634.47 447.595 634.322 447.801 634.129 448.028C633.939 448.256 633.678 448.453 633.345 448.619C633.011 448.786 632.578 448.869 632.043 448.869C631.354 448.869 630.733 448.708 630.18 448.386C629.631 448.061 629.195 447.581 628.873 446.949C628.555 446.312 628.396 445.53 628.396 444.602C628.396 443.674 628.553 442.879 628.867 442.216C629.186 441.553 629.621 441.045 630.174 440.693C630.727 440.337 631.354 440.159 632.055 440.159C632.596 440.159 633.034 440.25 633.367 440.432C633.701 440.61 633.96 440.818 634.146 441.057C634.335 441.295 634.481 441.506 634.583 441.688H634.708V440.273H636.373V449.193C636.373 449.943 636.199 450.559 635.85 451.04C635.502 451.521 635.03 451.877 634.436 452.108C633.845 452.339 633.178 452.455 632.436 452.455ZM632.418 447.46C632.907 447.46 633.32 447.347 633.657 447.119C633.998 446.888 634.256 446.559 634.43 446.131C634.608 445.699 634.697 445.182 634.697 444.58C634.697 443.992 634.61 443.475 634.436 443.028C634.261 442.581 634.006 442.233 633.668 441.983C633.331 441.729 632.915 441.602 632.418 441.602C631.907 441.602 631.481 441.735 631.14 442C630.799 442.261 630.542 442.617 630.367 443.068C630.197 443.519 630.112 444.023 630.112 444.58C630.112 445.152 630.199 445.653 630.373 446.085C630.547 446.517 630.805 446.854 631.146 447.097C631.49 447.339 631.915 447.46 632.418 447.46ZM652.047 441.148H650.274C650.206 440.769 650.079 440.436 649.894 440.148C649.708 439.86 649.481 439.616 649.212 439.415C648.943 439.214 648.642 439.062 648.308 438.96C647.979 438.858 647.628 438.807 647.257 438.807C646.587 438.807 645.986 438.975 645.456 439.312C644.93 439.65 644.513 440.144 644.206 440.795C643.903 441.447 643.751 442.242 643.751 443.182C643.751 444.129 643.903 444.928 644.206 445.58C644.513 446.231 644.931 446.723 645.462 447.057C645.992 447.39 646.589 447.557 647.251 447.557C647.619 447.557 647.967 447.508 648.297 447.409C648.63 447.307 648.931 447.157 649.2 446.96C649.469 446.763 649.697 446.523 649.882 446.239C650.072 445.951 650.202 445.621 650.274 445.25L652.047 445.256C651.952 445.828 651.769 446.354 651.496 446.835C651.227 447.312 650.88 447.725 650.456 448.074C650.036 448.419 649.555 448.686 649.013 448.875C648.471 449.064 647.88 449.159 647.24 449.159C646.233 449.159 645.335 448.92 644.547 448.443C643.759 447.962 643.138 447.275 642.683 446.381C642.233 445.487 642.007 444.42 642.007 443.182C642.007 441.939 642.234 440.873 642.689 439.983C643.144 439.089 643.765 438.403 644.553 437.926C645.34 437.445 646.236 437.205 647.24 437.205C647.858 437.205 648.433 437.294 648.967 437.472C649.505 437.646 649.988 437.903 650.416 438.244C650.844 438.581 651.198 438.994 651.479 439.483C651.759 439.968 651.948 440.523 652.047 441.148ZM657.368 449.176C656.549 449.176 655.835 448.989 655.226 448.614C654.616 448.239 654.142 447.714 653.805 447.04C653.468 446.366 653.299 445.578 653.299 444.676C653.299 443.771 653.468 442.979 653.805 442.301C654.142 441.623 654.616 441.097 655.226 440.722C655.835 440.347 656.549 440.159 657.368 440.159C658.186 440.159 658.9 440.347 659.51 440.722C660.119 441.097 660.593 441.623 660.93 442.301C661.267 442.979 661.436 443.771 661.436 444.676C661.436 445.578 661.267 446.366 660.93 447.04C660.593 447.714 660.119 448.239 659.51 448.614C658.9 448.989 658.186 449.176 657.368 449.176ZM657.373 447.75C657.904 447.75 658.343 447.61 658.691 447.33C659.04 447.049 659.297 446.676 659.464 446.21C659.635 445.744 659.72 445.231 659.72 444.67C659.72 444.114 659.635 443.602 659.464 443.136C659.297 442.667 659.04 442.29 658.691 442.006C658.343 441.722 657.904 441.58 657.373 441.58C656.839 441.58 656.396 441.722 656.044 442.006C655.695 442.29 655.436 442.667 655.265 443.136C655.099 443.602 655.015 444.114 655.015 444.67C655.015 445.231 655.099 445.744 655.265 446.21C655.436 446.676 655.695 447.049 656.044 447.33C656.396 447.61 656.839 447.75 657.373 447.75ZM664.711 443.818V449H663.012V440.273H664.643V441.693H664.751C664.951 441.231 665.266 440.86 665.694 440.58C666.126 440.299 666.669 440.159 667.325 440.159C667.919 440.159 668.44 440.284 668.887 440.534C669.334 440.78 669.681 441.148 669.927 441.636C670.173 442.125 670.296 442.729 670.296 443.449V449H668.597V443.653C668.597 443.021 668.433 442.527 668.103 442.17C667.773 441.811 667.321 441.631 666.745 441.631C666.351 441.631 666.001 441.716 665.694 441.886C665.391 442.057 665.15 442.307 664.972 442.636C664.798 442.962 664.711 443.356 664.711 443.818ZM676.328 440.273V441.636H671.561V440.273H676.328ZM672.84 438.182H674.539V446.438C674.539 446.767 674.588 447.015 674.686 447.182C674.785 447.345 674.912 447.456 675.067 447.517C675.226 447.574 675.398 447.602 675.584 447.602C675.72 447.602 675.84 447.593 675.942 447.574C676.044 447.555 676.124 447.54 676.181 447.528L676.488 448.932C676.389 448.97 676.249 449.008 676.067 449.045C675.885 449.087 675.658 449.11 675.385 449.114C674.938 449.121 674.522 449.042 674.135 448.875C673.749 448.708 673.436 448.451 673.198 448.102C672.959 447.754 672.84 447.316 672.84 446.79V438.182ZM681.555 449.176C680.695 449.176 679.955 448.992 679.334 448.625C678.716 448.254 678.239 447.733 677.902 447.062C677.569 446.388 677.402 445.598 677.402 444.693C677.402 443.799 677.569 443.011 677.902 442.33C678.239 441.648 678.709 441.116 679.311 440.733C679.917 440.35 680.625 440.159 681.436 440.159C681.928 440.159 682.406 440.241 682.868 440.403C683.33 440.566 683.745 440.822 684.112 441.17C684.48 441.519 684.769 441.972 684.981 442.528C685.194 443.081 685.3 443.754 685.3 444.545V445.148H678.362V443.875H683.635C683.635 443.428 683.544 443.032 683.362 442.688C683.18 442.339 682.925 442.064 682.595 441.864C682.269 441.663 681.887 441.562 681.447 441.562C680.97 441.562 680.553 441.68 680.197 441.915C679.845 442.146 679.572 442.449 679.379 442.824C679.19 443.195 679.095 443.598 679.095 444.034V445.028C679.095 445.612 679.197 446.108 679.402 446.517C679.61 446.926 679.9 447.239 680.271 447.455C680.642 447.667 681.076 447.773 681.572 447.773C681.894 447.773 682.188 447.727 682.453 447.636C682.718 447.542 682.947 447.402 683.141 447.216C683.334 447.03 683.481 446.801 683.584 446.528L685.192 446.818C685.063 447.292 684.832 447.706 684.498 448.062C684.169 448.415 683.754 448.689 683.254 448.886C682.758 449.08 682.192 449.176 681.555 449.176ZM688.563 443.818V449H686.865V440.273H688.495V441.693H688.603C688.804 441.231 689.118 440.86 689.546 440.58C689.978 440.299 690.522 440.159 691.177 440.159C691.772 440.159 692.293 440.284 692.74 440.534C693.187 440.78 693.533 441.148 693.779 441.636C694.026 442.125 694.149 442.729 694.149 443.449V449H692.45V443.653C692.45 443.021 692.285 442.527 691.955 442.17C691.626 441.811 691.173 441.631 690.598 441.631C690.204 441.631 689.853 441.716 689.546 441.886C689.243 442.057 689.003 442.307 688.825 442.636C688.651 442.962 688.563 443.356 688.563 443.818ZM700.181 440.273V441.636H695.414V440.273H700.181ZM696.692 438.182H698.391V446.438C698.391 446.767 698.44 447.015 698.539 447.182C698.637 447.345 698.764 447.456 698.92 447.517C699.079 447.574 699.251 447.602 699.437 447.602C699.573 447.602 699.692 447.593 699.795 447.574C699.897 447.555 699.976 447.54 700.033 447.528L700.34 448.932C700.242 448.97 700.101 449.008 699.92 449.045C699.738 449.087 699.51 449.11 699.238 449.114C698.791 449.121 698.374 449.042 697.988 448.875C697.601 448.708 697.289 448.451 697.05 448.102C696.812 447.754 696.692 447.316 696.692 446.79V438.182Z" fill="white"/>
<path d="M252.034 160.364V172H250.278V160.364H252.034ZM255.833 166.818V172H254.135V163.273H255.765V164.693H255.873C256.074 164.231 256.388 163.86 256.816 163.58C257.248 163.299 257.792 163.159 258.447 163.159C259.042 163.159 259.563 163.284 260.01 163.534C260.457 163.78 260.803 164.148 261.049 164.636C261.296 165.125 261.419 165.729 261.419 166.449V172H259.72V166.653C259.72 166.021 259.555 165.527 259.225 165.17C258.896 164.811 258.443 164.631 257.868 164.631C257.474 164.631 257.123 164.716 256.816 164.886C256.513 165.057 256.273 165.307 256.095 165.636C255.921 165.962 255.833 166.356 255.833 166.818ZM263.377 172V163.273H265.076V172H263.377ZM264.235 161.926C263.94 161.926 263.686 161.828 263.474 161.631C263.265 161.43 263.161 161.191 263.161 160.915C263.161 160.634 263.265 160.396 263.474 160.199C263.686 159.998 263.94 159.898 264.235 159.898C264.53 159.898 264.782 159.998 264.991 160.199C265.203 160.396 265.309 160.634 265.309 160.915C265.309 161.191 265.203 161.43 264.991 161.631C264.782 161.828 264.53 161.926 264.235 161.926ZM271.115 163.273V164.636H266.348V163.273H271.115ZM267.627 161.182H269.326V169.438C269.326 169.767 269.375 170.015 269.473 170.182C269.572 170.345 269.699 170.456 269.854 170.517C270.013 170.574 270.185 170.602 270.371 170.602C270.507 170.602 270.627 170.593 270.729 170.574C270.831 170.555 270.911 170.54 270.968 170.528L271.274 171.932C271.176 171.97 271.036 172.008 270.854 172.045C270.672 172.087 270.445 172.11 270.172 172.114C269.725 172.121 269.308 172.042 268.922 171.875C268.536 171.708 268.223 171.451 267.985 171.102C267.746 170.754 267.627 170.316 267.627 169.79V161.182ZM272.675 172V163.273H274.373V172H272.675ZM273.532 161.926C273.237 161.926 272.983 161.828 272.771 161.631C272.563 161.43 272.459 161.191 272.459 160.915C272.459 160.634 272.563 160.396 272.771 160.199C272.983 159.998 273.237 159.898 273.532 159.898C273.828 159.898 274.08 159.998 274.288 160.199C274.5 160.396 274.606 160.634 274.606 160.915C274.606 161.191 274.5 161.43 274.288 161.631C274.08 161.828 273.828 161.926 273.532 161.926ZM278.879 172.193C278.326 172.193 277.826 172.091 277.379 171.886C276.932 171.678 276.578 171.377 276.316 170.983C276.059 170.589 275.93 170.106 275.93 169.534C275.93 169.042 276.025 168.636 276.214 168.318C276.403 168 276.659 167.748 276.981 167.562C277.303 167.377 277.663 167.237 278.061 167.142C278.458 167.047 278.864 166.975 279.276 166.926C279.799 166.866 280.223 166.816 280.549 166.778C280.875 166.737 281.112 166.67 281.259 166.58C281.407 166.489 281.481 166.341 281.481 166.136V166.097C281.481 165.6 281.341 165.216 281.061 164.943C280.784 164.67 280.371 164.534 279.822 164.534C279.25 164.534 278.799 164.661 278.47 164.915C278.144 165.165 277.918 165.443 277.793 165.75L276.197 165.386C276.386 164.856 276.663 164.428 277.026 164.102C277.394 163.773 277.816 163.534 278.293 163.386C278.771 163.235 279.273 163.159 279.799 163.159C280.148 163.159 280.517 163.201 280.907 163.284C281.301 163.364 281.668 163.511 282.009 163.727C282.354 163.943 282.636 164.252 282.856 164.653C283.076 165.051 283.186 165.568 283.186 166.205V172H281.526V170.807H281.458C281.348 171.027 281.184 171.242 280.964 171.455C280.744 171.667 280.462 171.843 280.117 171.983C279.773 172.123 279.36 172.193 278.879 172.193ZM279.248 170.83C279.718 170.83 280.119 170.737 280.453 170.551C280.79 170.366 281.045 170.123 281.22 169.824C281.398 169.521 281.487 169.197 281.487 168.852V167.727C281.426 167.788 281.309 167.845 281.134 167.898C280.964 167.947 280.769 167.991 280.549 168.028C280.329 168.062 280.115 168.095 279.907 168.125C279.699 168.152 279.525 168.174 279.384 168.193C279.055 168.235 278.754 168.305 278.481 168.403C278.212 168.502 277.996 168.644 277.833 168.83C277.674 169.011 277.595 169.254 277.595 169.557C277.595 169.977 277.75 170.295 278.061 170.511C278.371 170.723 278.767 170.83 279.248 170.83ZM289.202 163.273V164.636H284.435V163.273H289.202ZM285.714 161.182H287.412V169.438C287.412 169.767 287.462 170.015 287.56 170.182C287.659 170.345 287.785 170.456 287.941 170.517C288.1 170.574 288.272 170.602 288.458 170.602C288.594 170.602 288.714 170.593 288.816 170.574C288.918 170.555 288.998 170.54 289.054 170.528L289.361 171.932C289.263 171.97 289.123 172.008 288.941 172.045C288.759 172.087 288.532 172.11 288.259 172.114C287.812 172.121 287.395 172.042 287.009 171.875C286.623 171.708 286.31 171.451 286.071 171.102C285.833 170.754 285.714 170.316 285.714 169.79V161.182ZM290.761 172V163.273H292.46V172H290.761ZM291.619 161.926C291.324 161.926 291.07 161.828 290.858 161.631C290.65 161.43 290.546 161.191 290.546 160.915C290.546 160.634 290.65 160.396 290.858 160.199C291.07 159.998 291.324 159.898 291.619 159.898C291.915 159.898 292.167 159.998 292.375 160.199C292.587 160.396 292.693 160.634 292.693 160.915C292.693 161.191 292.587 161.43 292.375 161.631C292.167 161.828 291.915 161.926 291.619 161.926ZM296.125 166.818V172H294.426V163.273H296.056V164.693H296.164C296.365 164.231 296.68 163.86 297.108 163.58C297.539 163.299 298.083 163.159 298.738 163.159C299.333 163.159 299.854 163.284 300.301 163.534C300.748 163.78 301.094 164.148 301.341 164.636C301.587 165.125 301.71 165.729 301.71 166.449V172H300.011V166.653C300.011 166.021 299.846 165.527 299.517 165.17C299.187 164.811 298.735 164.631 298.159 164.631C297.765 164.631 297.414 164.716 297.108 164.886C296.805 165.057 296.564 165.307 296.386 165.636C296.212 165.962 296.125 166.356 296.125 166.818ZM307.327 175.455C306.634 175.455 306.038 175.364 305.538 175.182C305.041 175 304.636 174.759 304.322 174.46C304.007 174.161 303.772 173.833 303.617 173.477L305.077 172.875C305.18 173.042 305.316 173.218 305.486 173.403C305.661 173.593 305.896 173.754 306.191 173.886C306.49 174.019 306.875 174.085 307.344 174.085C307.988 174.085 308.521 173.928 308.941 173.614C309.361 173.303 309.572 172.807 309.572 172.125V170.409H309.464C309.361 170.595 309.214 170.801 309.021 171.028C308.831 171.256 308.57 171.453 308.236 171.619C307.903 171.786 307.469 171.869 306.935 171.869C306.246 171.869 305.625 171.708 305.072 171.386C304.522 171.061 304.087 170.581 303.765 169.949C303.447 169.312 303.288 168.53 303.288 167.602C303.288 166.674 303.445 165.879 303.759 165.216C304.077 164.553 304.513 164.045 305.066 163.693C305.619 163.337 306.246 163.159 306.947 163.159C307.488 163.159 307.926 163.25 308.259 163.432C308.593 163.61 308.852 163.818 309.038 164.057C309.227 164.295 309.373 164.506 309.475 164.688H309.6V163.273H311.265V172.193C311.265 172.943 311.091 173.559 310.742 174.04C310.394 174.521 309.922 174.877 309.327 175.108C308.736 175.339 308.07 175.455 307.327 175.455ZM307.31 170.46C307.799 170.46 308.212 170.347 308.549 170.119C308.89 169.888 309.147 169.559 309.322 169.131C309.5 168.699 309.589 168.182 309.589 167.58C309.589 166.992 309.502 166.475 309.327 166.028C309.153 165.581 308.897 165.233 308.56 164.983C308.223 164.729 307.807 164.602 307.31 164.602C306.799 164.602 306.373 164.735 306.032 165C305.691 165.261 305.433 165.617 305.259 166.068C305.089 166.519 305.004 167.023 305.004 167.58C305.004 168.152 305.091 168.653 305.265 169.085C305.439 169.517 305.697 169.854 306.038 170.097C306.382 170.339 306.807 170.46 307.31 170.46Z" fill="white"/>
<path d="M1018.28 449V437.364H1020.03V447.489H1025.31V449H1018.28ZM1030.53 449.176C1029.71 449.176 1029 448.989 1028.39 448.614C1027.78 448.239 1027.3 447.714 1026.97 447.04C1026.63 446.366 1026.46 445.578 1026.46 444.676C1026.46 443.771 1026.63 442.979 1026.97 442.301C1027.3 441.623 1027.78 441.097 1028.39 440.722C1029 440.347 1029.71 440.159 1030.53 440.159C1031.35 440.159 1032.06 440.347 1032.67 440.722C1033.28 441.097 1033.75 441.623 1034.09 442.301C1034.43 442.979 1034.6 443.771 1034.6 444.676C1034.6 445.578 1034.43 446.366 1034.09 447.04C1033.75 447.714 1033.28 448.239 1032.67 448.614C1032.06 448.989 1031.35 449.176 1030.53 449.176ZM1030.54 447.75C1031.07 447.75 1031.5 447.61 1031.85 447.33C1032.2 447.049 1032.46 446.676 1032.63 446.21C1032.8 445.744 1032.88 445.231 1032.88 444.67C1032.88 444.114 1032.8 443.602 1032.63 443.136C1032.46 442.667 1032.2 442.29 1031.85 442.006C1031.5 441.722 1031.07 441.58 1030.54 441.58C1030 441.58 1029.56 441.722 1029.21 442.006C1028.86 442.29 1028.6 442.667 1028.43 443.136C1028.26 443.602 1028.18 444.114 1028.18 444.67C1028.18 445.231 1028.26 445.744 1028.43 446.21C1028.6 446.676 1028.86 447.049 1029.21 447.33C1029.56 447.61 1030 447.75 1030.54 447.75ZM1039.44 449.17C1038.74 449.17 1038.11 448.991 1037.55 448.631C1037.01 448.267 1036.57 447.75 1036.26 447.08C1035.95 446.405 1035.79 445.597 1035.79 444.653C1035.79 443.71 1035.95 442.903 1036.26 442.233C1036.58 441.562 1037.02 441.049 1037.57 440.693C1038.12 440.337 1038.75 440.159 1039.45 440.159C1039.99 440.159 1040.43 440.25 1040.76 440.432C1041.09 440.61 1041.35 440.818 1041.53 441.057C1041.72 441.295 1041.86 441.506 1041.96 441.688H1042.07V437.364H1043.76V449H1042.11V447.642H1041.96C1041.86 447.828 1041.71 448.04 1041.52 448.278C1041.33 448.517 1041.07 448.725 1040.74 448.903C1040.4 449.081 1039.97 449.17 1039.44 449.17ZM1039.82 447.722C1040.3 447.722 1040.72 447.593 1041.05 447.335C1041.4 447.074 1041.65 446.712 1041.83 446.25C1042.01 445.788 1042.09 445.25 1042.09 444.636C1042.09 444.03 1042.01 443.5 1041.83 443.045C1041.66 442.591 1041.4 442.237 1041.07 441.983C1040.73 441.729 1040.31 441.602 1039.82 441.602C1039.3 441.602 1038.88 441.735 1038.54 442C1038.2 442.265 1037.94 442.627 1037.76 443.085C1037.59 443.544 1037.51 444.061 1037.51 444.636C1037.51 445.22 1037.6 445.744 1037.77 446.21C1037.94 446.676 1038.2 447.045 1038.54 447.318C1038.89 447.587 1039.31 447.722 1039.82 447.722ZM1045.87 449V440.273H1047.57V449H1045.87ZM1046.73 438.926C1046.43 438.926 1046.18 438.828 1045.97 438.631C1045.76 438.43 1045.65 438.191 1045.65 437.915C1045.65 437.634 1045.76 437.396 1045.97 437.199C1046.18 436.998 1046.43 436.898 1046.73 436.898C1047.02 436.898 1047.27 436.998 1047.48 437.199C1047.7 437.396 1047.8 437.634 1047.8 437.915C1047.8 438.191 1047.7 438.43 1047.48 438.631C1047.27 438.828 1047.02 438.926 1046.73 438.926ZM1051.23 443.818V449H1049.53V440.273H1051.16V441.693H1051.27C1051.47 441.231 1051.79 440.86 1052.22 440.58C1052.65 440.299 1053.19 440.159 1053.85 440.159C1054.44 440.159 1054.96 440.284 1055.41 440.534C1055.86 440.78 1056.2 441.148 1056.45 441.636C1056.69 442.125 1056.82 442.729 1056.82 443.449V449H1055.12V443.653C1055.12 443.021 1054.95 442.527 1054.62 442.17C1054.3 441.811 1053.84 441.631 1053.27 441.631C1052.87 441.631 1052.52 441.716 1052.22 441.886C1051.91 442.057 1051.67 442.307 1051.49 442.636C1051.32 442.962 1051.23 443.356 1051.23 443.818ZM1062.44 452.455C1061.74 452.455 1061.15 452.364 1060.65 452.182C1060.15 452 1059.74 451.759 1059.43 451.46C1059.12 451.161 1058.88 450.833 1058.73 450.477L1060.19 449.875C1060.29 450.042 1060.42 450.218 1060.59 450.403C1060.77 450.593 1061 450.754 1061.3 450.886C1061.6 451.019 1061.98 451.085 1062.45 451.085C1063.1 451.085 1063.63 450.928 1064.05 450.614C1064.47 450.303 1064.68 449.807 1064.68 449.125V447.409H1064.57C1064.47 447.595 1064.32 447.801 1064.13 448.028C1063.94 448.256 1063.68 448.453 1063.34 448.619C1063.01 448.786 1062.58 448.869 1062.04 448.869C1061.35 448.869 1060.73 448.708 1060.18 448.386C1059.63 448.061 1059.19 447.581 1058.87 446.949C1058.55 446.312 1058.4 445.53 1058.4 444.602C1058.4 443.674 1058.55 442.879 1058.87 442.216C1059.19 441.553 1059.62 441.045 1060.17 440.693C1060.73 440.337 1061.35 440.159 1062.05 440.159C1062.6 440.159 1063.03 440.25 1063.37 440.432C1063.7 440.61 1063.96 440.818 1064.15 441.057C1064.34 441.295 1064.48 441.506 1064.58 441.688H1064.71V440.273H1066.37V449.193C1066.37 449.943 1066.2 450.559 1065.85 451.04C1065.5 451.521 1065.03 451.877 1064.44 452.108C1063.84 452.339 1063.18 452.455 1062.44 452.455ZM1062.42 447.46C1062.91 447.46 1063.32 447.347 1063.66 447.119C1064 446.888 1064.26 446.559 1064.43 446.131C1064.61 445.699 1064.7 445.182 1064.7 444.58C1064.7 443.992 1064.61 443.475 1064.44 443.028C1064.26 442.581 1064.01 442.233 1063.67 441.983C1063.33 441.729 1062.91 441.602 1062.42 441.602C1061.91 441.602 1061.48 441.735 1061.14 442C1060.8 442.261 1060.54 442.617 1060.37 443.068C1060.2 443.519 1060.11 444.023 1060.11 444.58C1060.11 445.152 1060.2 445.653 1060.37 446.085C1060.55 446.517 1060.8 446.854 1061.15 447.097C1061.49 447.339 1061.91 447.46 1062.42 447.46ZM1080.26 441.04C1080.15 440.695 1080 440.386 1079.81 440.114C1079.63 439.837 1079.41 439.602 1079.16 439.409C1078.91 439.212 1078.62 439.062 1078.29 438.96C1077.97 438.858 1077.62 438.807 1077.23 438.807C1076.57 438.807 1075.98 438.975 1075.46 439.312C1074.93 439.65 1074.51 440.144 1074.21 440.795C1073.9 441.443 1073.75 442.237 1073.75 443.176C1073.75 444.119 1073.9 444.917 1074.21 445.568C1074.52 446.22 1074.94 446.714 1075.47 447.051C1076.01 447.388 1076.62 447.557 1077.3 447.557C1077.93 447.557 1078.48 447.428 1078.95 447.17C1079.42 446.913 1079.79 446.549 1080.05 446.08C1080.31 445.606 1080.44 445.049 1080.44 444.409L1080.89 444.494H1077.56V443.045H1082.14V444.369C1082.14 445.347 1081.93 446.195 1081.51 446.915C1081.1 447.631 1080.53 448.184 1079.8 448.574C1079.07 448.964 1078.24 449.159 1077.3 449.159C1076.24 449.159 1075.32 448.917 1074.52 448.432C1073.73 447.947 1073.12 447.259 1072.67 446.369C1072.23 445.475 1072.01 444.415 1072.01 443.188C1072.01 442.259 1072.14 441.426 1072.39 440.688C1072.65 439.949 1073.01 439.322 1073.48 438.807C1073.95 438.288 1074.5 437.892 1075.13 437.619C1075.77 437.343 1076.46 437.205 1077.22 437.205C1077.85 437.205 1078.43 437.297 1078.97 437.483C1079.52 437.669 1080 437.932 1080.43 438.273C1080.86 438.614 1081.21 439.019 1081.49 439.489C1081.77 439.955 1081.96 440.472 1082.06 441.04H1080.26ZM1083.91 449V440.273H1085.55V441.659H1085.64C1085.8 441.189 1086.08 440.82 1086.48 440.551C1086.89 440.278 1087.35 440.142 1087.86 440.142C1087.97 440.142 1088.09 440.146 1088.23 440.153C1088.38 440.161 1088.5 440.17 1088.58 440.182V441.807C1088.51 441.788 1088.39 441.767 1088.22 441.744C1088.04 441.718 1087.87 441.705 1087.69 441.705C1087.29 441.705 1086.93 441.79 1086.62 441.96C1086.31 442.127 1086.06 442.36 1085.88 442.659C1085.7 442.955 1085.61 443.292 1085.61 443.67V449H1083.91ZM1092.19 449.193C1091.64 449.193 1091.14 449.091 1090.69 448.886C1090.25 448.678 1089.89 448.377 1089.63 447.983C1089.37 447.589 1089.24 447.106 1089.24 446.534C1089.24 446.042 1089.34 445.636 1089.53 445.318C1089.72 445 1089.97 444.748 1090.29 444.562C1090.62 444.377 1090.98 444.237 1091.37 444.142C1091.77 444.047 1092.18 443.975 1092.59 443.926C1093.11 443.866 1093.54 443.816 1093.86 443.778C1094.19 443.737 1094.43 443.67 1094.57 443.58C1094.72 443.489 1094.79 443.341 1094.79 443.136V443.097C1094.79 442.6 1094.65 442.216 1094.37 441.943C1094.1 441.67 1093.68 441.534 1093.14 441.534C1092.56 441.534 1092.11 441.661 1091.78 441.915C1091.46 442.165 1091.23 442.443 1091.11 442.75L1089.51 442.386C1089.7 441.856 1089.98 441.428 1090.34 441.102C1090.71 440.773 1091.13 440.534 1091.61 440.386C1092.08 440.235 1092.59 440.159 1093.11 440.159C1093.46 440.159 1093.83 440.201 1094.22 440.284C1094.61 440.364 1094.98 440.511 1095.32 440.727C1095.67 440.943 1095.95 441.252 1096.17 441.653C1096.39 442.051 1096.5 442.568 1096.5 443.205V449H1094.84V447.807H1094.77C1094.66 448.027 1094.5 448.242 1094.28 448.455C1094.06 448.667 1093.78 448.843 1093.43 448.983C1093.09 449.123 1092.67 449.193 1092.19 449.193ZM1092.56 447.83C1093.03 447.83 1093.43 447.737 1093.77 447.551C1094.1 447.366 1094.36 447.123 1094.53 446.824C1094.71 446.521 1094.8 446.197 1094.8 445.852V444.727C1094.74 444.788 1094.62 444.845 1094.45 444.898C1094.28 444.947 1094.08 444.991 1093.86 445.028C1093.64 445.062 1093.43 445.095 1093.22 445.125C1093.01 445.152 1092.84 445.174 1092.7 445.193C1092.37 445.235 1092.07 445.305 1091.79 445.403C1091.53 445.502 1091.31 445.644 1091.15 445.83C1090.99 446.011 1090.91 446.254 1090.91 446.557C1090.91 446.977 1091.06 447.295 1091.37 447.511C1091.68 447.723 1092.08 447.83 1092.56 447.83ZM1098.44 452.273V440.273H1100.1V441.688H1100.24C1100.34 441.506 1100.48 441.295 1100.67 441.057C1100.85 440.818 1101.11 440.61 1101.44 440.432C1101.77 440.25 1102.21 440.159 1102.75 440.159C1103.45 440.159 1104.08 440.337 1104.64 440.693C1105.19 441.049 1105.62 441.562 1105.94 442.233C1106.25 442.903 1106.41 443.71 1106.41 444.653C1106.41 445.597 1106.26 446.405 1105.94 447.08C1105.63 447.75 1105.2 448.267 1104.65 448.631C1104.1 448.991 1103.47 449.17 1102.77 449.17C1102.24 449.17 1101.8 449.081 1101.46 448.903C1101.13 448.725 1100.87 448.517 1100.68 448.278C1100.49 448.04 1100.35 447.828 1100.24 447.642H1100.14V452.273H1098.44ZM1100.11 444.636C1100.11 445.25 1100.2 445.788 1100.37 446.25C1100.55 446.712 1100.81 447.074 1101.15 447.335C1101.48 447.593 1101.9 447.722 1102.39 447.722C1102.89 447.722 1103.32 447.587 1103.66 447.318C1104 447.045 1104.26 446.676 1104.43 446.21C1104.61 445.744 1104.7 445.22 1104.7 444.636C1104.7 444.061 1104.61 443.544 1104.44 443.085C1104.27 442.627 1104.01 442.265 1103.66 442C1103.32 441.735 1102.9 441.602 1102.39 441.602C1101.89 441.602 1101.48 441.729 1101.14 441.983C1100.8 442.237 1100.54 442.591 1100.37 443.045C1100.19 443.5 1100.11 444.03 1100.11 444.636ZM1109.7 443.818V449H1108V437.364H1109.67V441.693H1109.78C1109.99 441.223 1110.3 440.85 1110.72 440.574C1111.14 440.297 1111.69 440.159 1112.37 440.159C1112.96 440.159 1113.49 440.282 1113.93 440.528C1114.39 440.775 1114.73 441.142 1114.98 441.631C1115.23 442.116 1115.36 442.722 1115.36 443.449V449H1113.66V443.653C1113.66 443.013 1113.49 442.517 1113.16 442.165C1112.83 441.809 1112.37 441.631 1111.79 441.631C1111.39 441.631 1111.03 441.716 1110.71 441.886C1110.39 442.057 1110.14 442.307 1109.96 442.636C1109.78 442.962 1109.7 443.356 1109.7 443.818ZM1117.3 449V440.273H1119V449H1117.3ZM1118.16 438.926C1117.86 438.926 1117.61 438.828 1117.4 438.631C1117.19 438.43 1117.09 438.191 1117.09 437.915C1117.09 437.634 1117.19 437.396 1117.4 437.199C1117.61 436.998 1117.86 436.898 1118.16 436.898C1118.46 436.898 1118.71 436.998 1118.92 437.199C1119.13 437.396 1119.23 437.634 1119.23 437.915C1119.23 438.191 1119.13 438.43 1118.92 438.631C1118.71 438.828 1118.46 438.926 1118.16 438.926ZM1124.64 449.176C1123.8 449.176 1123.07 448.985 1122.46 448.602C1121.85 448.216 1121.39 447.684 1121.06 447.006C1120.74 446.328 1120.57 445.551 1120.57 444.676C1120.57 443.79 1120.74 443.008 1121.07 442.33C1121.41 441.648 1121.88 441.116 1122.48 440.733C1123.09 440.35 1123.8 440.159 1124.63 440.159C1125.29 440.159 1125.88 440.282 1126.4 440.528C1126.92 440.771 1127.34 441.112 1127.65 441.551C1127.98 441.991 1128.17 442.504 1128.23 443.091H1126.57C1126.48 442.682 1126.28 442.33 1125.95 442.034C1125.63 441.739 1125.2 441.591 1124.65 441.591C1124.18 441.591 1123.77 441.716 1123.41 441.966C1123.06 442.212 1122.78 442.564 1122.59 443.023C1122.39 443.477 1122.29 444.015 1122.29 444.636C1122.29 445.273 1122.39 445.822 1122.58 446.284C1122.77 446.746 1123.05 447.104 1123.4 447.358C1123.75 447.612 1124.17 447.739 1124.65 447.739C1124.98 447.739 1125.27 447.68 1125.53 447.562C1125.79 447.441 1126.02 447.269 1126.19 447.045C1126.38 446.822 1126.5 446.553 1126.57 446.239H1128.23C1128.17 446.803 1127.98 447.307 1127.68 447.75C1127.37 448.193 1126.96 448.542 1126.44 448.795C1125.93 449.049 1125.33 449.176 1124.64 449.176ZM1136.26 442.403L1134.72 442.676C1134.66 442.479 1134.56 442.292 1134.42 442.114C1134.28 441.936 1134.1 441.79 1133.86 441.676C1133.63 441.562 1133.33 441.506 1132.98 441.506C1132.5 441.506 1132.1 441.614 1131.78 441.83C1131.45 442.042 1131.29 442.316 1131.29 442.653C1131.29 442.945 1131.4 443.18 1131.62 443.358C1131.83 443.536 1132.18 443.682 1132.66 443.795L1134.05 444.114C1134.85 444.299 1135.45 444.585 1135.84 444.972C1136.24 445.358 1136.43 445.86 1136.43 446.477C1136.43 447 1136.28 447.466 1135.98 447.875C1135.68 448.28 1135.26 448.598 1134.72 448.83C1134.19 449.061 1133.57 449.176 1132.87 449.176C1131.89 449.176 1131.09 448.968 1130.47 448.551C1129.86 448.131 1129.48 447.534 1129.34 446.761L1130.98 446.511C1131.08 446.939 1131.29 447.263 1131.61 447.483C1131.93 447.699 1132.34 447.807 1132.86 447.807C1133.41 447.807 1133.86 447.691 1134.19 447.46C1134.52 447.225 1134.69 446.939 1134.69 446.602C1134.69 446.33 1134.59 446.1 1134.38 445.915C1134.18 445.729 1133.87 445.589 1133.46 445.494L1131.98 445.17C1131.17 444.985 1130.56 444.689 1130.17 444.284C1129.79 443.879 1129.59 443.366 1129.59 442.744C1129.59 442.229 1129.74 441.778 1130.03 441.392C1130.31 441.006 1130.71 440.705 1131.22 440.489C1131.73 440.269 1132.31 440.159 1132.96 440.159C1133.91 440.159 1134.65 440.364 1135.19 440.773C1135.73 441.178 1136.09 441.722 1136.26 442.403Z" fill="white"/>
</g>
<defs>
<filter id="filter0_d_2014_87" x="-25.4797" y="0.520264" width="1165.91" height="517.48" filterUnits="userSpaceOnUse" color-interpolation-filters="sRGB">
<feFlood flood-opacity="0" result="BackgroundImageFix"/>
<feColorMatrix in="SourceAlpha" type="matrix" values="0 0 0 0 0 0 0 0 0 0 0 0 0 0 0 0 0 0 127 0" result="hardAlpha"/>
<feOffset dy="4"/>
<feGaussianBlur stdDeviation="2"/>
<feComposite in2="hardAlpha" operator="out"/>
<feColorMatrix type="matrix" values="0 0 0 0 0 0 0 0 0 0 0 0 0 0 0 0 0 0 0.25 0"/>
<feBlend mode="normal" in2="BackgroundImageFix" result="effect1_dropShadow_2014_87"/>
<feBlend mode="normal" in="SourceGraphic" in2="effect1_dropShadow_2014_87" result="shape"/>
</filter>
<filter id="filter1_f_2014_87" x="602" y="459" width="86" height="79" filterUnits="userSpaceOnUse" color-interpolation-filters="sRGB">
<feFlood flood-opacity="0" result="BackgroundImageFix"/>
<feBlend mode="normal" in="SourceGraphic" in2="BackgroundImageFix" result="shape"/>
<feGaussianBlur stdDeviation="14" result="effect1_foregroundBlur_2014_87"/>
</filter>
<filter id="filter2_f_2014_87" x="631.2" y="485.2" width="27.6" height="27.6" filterUnits="userSpaceOnUse" color-interpolation-filters="sRGB">
<feFlood flood-opacity="0" result="BackgroundImageFix"/>
<feBlend mode="normal" in="SourceGraphic" in2="BackgroundImageFix" result="shape"/>
<feGaussianBlur stdDeviation="3.4" result="effect1_foregroundBlur_2014_87"/>
</filter>
<filter id="filter3_f_2014_87" x="159" y="127" width="86" height="79" filterUnits="userSpaceOnUse" color-interpolation-filters="sRGB">
<feFlood flood-opacity="0" result="BackgroundImageFix"/>
<feBlend mode="normal" in="SourceGraphic" in2="BackgroundImageFix" result="shape"/>
<feGaussianBlur stdDeviation="14" result="effect1_foregroundBlur_2014_87"/>
</filter>
<filter id="filter4_f_2014_87" x="188.2" y="153.2" width="27.6" height="27.6" filterUnits="userSpaceOnUse" color-interpolation-filters="sRGB">
<feFlood flood-opacity="0" result="BackgroundImageFix"/>
<feBlend mode="normal" in="SourceGraphic" in2="BackgroundImageFix" result="shape"/>
<feGaussianBlur stdDeviation="3.4" result="effect1_foregroundBlur_2014_87"/>
</filter>
<filter id="filter5_f_2014_87" x="1034" y="459" width="86" height="79" filterUnits="userSpaceOnUse" color-interpolation-filters="sRGB">
<feFlood flood-opacity="0" result="BackgroundImageFix"/>
<feBlend mode="normal" in="SourceGraphic" in2="BackgroundImageFix" result="shape"/>
<feGaussianBlur stdDeviation="14" result="effect1_foregroundBlur_2014_87"/>
</filter>
<filter id="filter6_f_2014_87" x="1063.2" y="485.2" width="27.6" height="27.6" filterUnits="userSpaceOnUse" color-interpolation-filters="sRGB">
<feFlood flood-opacity="0" result="BackgroundImageFix"/>
<feBlend mode="normal" in="SourceGraphic" in2="BackgroundImageFix" result="shape"/>
<feGaussianBlur stdDeviation="3.4" result="effect1_foregroundBlur_2014_87"/>
</filter>
<linearGradient id="paint0_linear_2014_87" x1="503.301" y1="628.536" x2="-68.5092" y2="116.579" gradientUnits="userSpaceOnUse">
<stop stop-color="#A371F7"/>
<stop offset="0.00733964" stop-color="#9E72D3"/>
<stop offset="0.251918" stop-color="#6639BA" stop-opacity="0"/>
<stop offset="0.325848" stop-color="#6639BA"/>
<stop offset="0.945217" stop-color="#6639BA"/>
<stop offset="1" stop-color="#6639BA" stop-opacity="0"/>
</linearGradient>
<linearGradient id="paint1_linear_2014_87" x1="-166.232" y1="-127.308" x2="406.474" y2="506.776" gradientUnits="userSpaceOnUse">
<stop stop-color="#A371F7"/>
<stop offset="0.00733964" stop-color="#9E72D3"/>
<stop offset="0.251918" stop-color="#6639BA" stop-opacity="0"/>
<stop offset="0.325848" stop-color="#6639BA"/>
<stop offset="0.945217" stop-color="#6639BA"/>
<stop offset="1" stop-color="#6639BA" stop-opacity="0"/>
</linearGradient>
<linearGradient id="paint2_linear_2014_87" x1="1.5" y1="0" x2="1.5" y2="279" gradientUnits="userSpaceOnUse">
<stop stop-color="#D2A8FF"/>
<stop offset="0.1" stop-color="#A371F7"/>
<stop offset="0.688361" stop-color="#4C2E8E"/>
<stop offset="0.932292" stop-color="#6639BA"/>
<stop offset="1" stop-color="#6639BA" stop-opacity="0"/>
</linearGradient>
<linearGradient id="paint3_linear_2014_87" x1="1.5" y1="0" x2="1.5" y2="336" gradientUnits="userSpaceOnUse">
<stop stop-color="#D2A8FF"/>
<stop offset="0.1" stop-color="#A371F7"/>
<stop offset="0.688361" stop-color="#4C2E8E"/>
<stop offset="0.932292" stop-color="#6639BA"/>
<stop offset="1" stop-color="#6639BA" stop-opacity="0"/>
</linearGradient>
<linearGradient id="paint4_linear_2014_87" x1="1.5" y1="0" x2="1.5" y2="0.0001" gradientUnits="userSpaceOnUse">
<stop stop-color="#D2A8FF"/>
<stop offset="0.1" stop-color="#A371F7"/>
<stop offset="0.688361" stop-color="#4C2E8E"/>
<stop offset="0.932292" stop-color="#6639BA"/>
<stop offset="1" stop-color="#6639BA" stop-opacity="0"/>
</linearGradient>
</defs>
</svg>
