<svg width="1027" height="254" viewBox="0 0 1027 254" fill="none" xmlns="http://www.w3.org/2000/svg">
<g filter="url(#filter0_f_5_74)">
<ellipse opacity="0.5" cx="13.5927" cy="64.0862" rx="1.59268" ry="1.69292" fill="#D9D9D9"/>
<ellipse opacity="0.6" cx="51.1602" cy="29.2388" rx="1.59268" ry="1.69292" fill="#D9D9D9"/>
<ellipse opacity="0.2" cx="153.749" cy="9.91301" rx="1.59268" ry="1.69292" fill="#D9D9D9"/>
<ellipse opacity="0.5" cx="270.554" cy="3.69292" rx="1.59268" ry="1.69292" fill="#D9D9D9"/>
<ellipse opacity="0.6" cx="383.095" cy="25.1491" rx="1.59268" ry="1.69292" fill="#D9D9D9"/>
<ellipse opacity="0.4" cx="123.488" cy="103.023" rx="1.59268" ry="1.69292" fill="#D9D9D9"/>
<ellipse opacity="0.3" cx="219.049" cy="125.031" rx="1.59268" ry="1.69292" fill="#D9D9D9"/>
<ellipse opacity="0.8" cx="325.758" cy="109.795" rx="1.59268" ry="1.69292" fill="#D9D9D9"/>
<ellipse opacity="0.7" cx="462.9" cy="98.363" rx="1.59268" ry="1.69292" fill="#D9D9D9"/>
<ellipse opacity="0.2" cx="464.403" cy="8.201" rx="1.59268" ry="1.69292" fill="#D9D9D9"/>
<ellipse opacity="0.2" cx="516.997" cy="57.7901" rx="1.59268" ry="1.69292" fill="#D9D9D9"/>
<ellipse opacity="0.1" cx="15.1854" cy="97.9446" rx="1.59268" ry="1.69292" fill="#D9D9D9"/>
<g filter="url(#filter1_f_5_74)">
<ellipse cx="16.778" cy="65.7791" rx="1.59268" ry="1.69292" fill="#D9D9D9"/>
</g>
<g filter="url(#filter2_f_5_74)">
<ellipse cx="18.3707" cy="45.4642" rx="1.59268" ry="1.69292" fill="#D9D9D9"/>
</g>
<ellipse opacity="0.5" cx="520.003" cy="64.0862" rx="1.59268" ry="1.69292" fill="#D9D9D9"/>
<ellipse opacity="0.6" cx="557.57" cy="29.2388" rx="1.59268" ry="1.69292" fill="#D9D9D9"/>
<ellipse opacity="0.2" cx="660.159" cy="9.91301" rx="1.59268" ry="1.69292" fill="#D9D9D9"/>
<ellipse opacity="0.5" cx="776.964" cy="3.69292" rx="1.59268" ry="1.69292" fill="#D9D9D9"/>
<ellipse opacity="0.6" cx="889.505" cy="25.1491" rx="1.59268" ry="1.69292" fill="#D9D9D9"/>
<ellipse opacity="0.4" cx="629.898" cy="103.023" rx="1.59268" ry="1.69292" fill="#D9D9D9"/>
<ellipse opacity="0.3" cx="725.459" cy="125.031" rx="1.59268" ry="1.69292" fill="#D9D9D9"/>
<ellipse opacity="0.8" cx="832.169" cy="109.795" rx="1.59268" ry="1.69292" fill="#D9D9D9"/>
<ellipse opacity="0.7" cx="969.31" cy="98.363" rx="1.59268" ry="1.69292" fill="#D9D9D9"/>
<ellipse opacity="0.2" cx="970.813" cy="8.201" rx="1.59268" ry="1.69292" fill="#D9D9D9"/>
<ellipse opacity="0.2" cx="1023.41" cy="57.7901" rx="1.59268" ry="1.69292" fill="#D9D9D9"/>
<ellipse opacity="0.1" cx="521.595" cy="97.9446" rx="1.59268" ry="1.69292" fill="#D9D9D9"/>
<g filter="url(#filter3_f_5_74)">
<ellipse cx="523.188" cy="65.7791" rx="1.59268" ry="1.69292" fill="#D9D9D9"/>
</g>
<g filter="url(#filter4_f_5_74)">
<ellipse cx="524.781" cy="45.4642" rx="1.59268" ry="1.69292" fill="#D9D9D9"/>
</g>
<ellipse opacity="0.5" cx="520.003" cy="188.81" rx="1.59268" ry="1.69292" fill="#D9D9D9"/>
<ellipse opacity="0.6" cx="557.57" cy="153.963" rx="1.59268" ry="1.69292" fill="#D9D9D9"/>
<ellipse opacity="0.2" cx="660.159" cy="134.637" rx="1.59268" ry="1.69292" fill="#D9D9D9"/>
<ellipse opacity="0.5" cx="776.964" cy="128.417" rx="1.59268" ry="1.69292" fill="#D9D9D9"/>
<ellipse opacity="0.6" cx="889.505" cy="149.873" rx="1.59268" ry="1.69292" fill="#D9D9D9"/>
<ellipse opacity="0.4" cx="629.898" cy="227.748" rx="1.59268" ry="1.69292" fill="#D9D9D9"/>
<ellipse opacity="0.3" cx="725.459" cy="249.755" rx="1.59268" ry="1.69292" fill="#D9D9D9"/>
<ellipse opacity="0.8" cx="832.169" cy="234.519" rx="1.59268" ry="1.69292" fill="#D9D9D9"/>
<ellipse opacity="0.7" cx="969.31" cy="223.087" rx="1.59268" ry="1.69292" fill="#D9D9D9"/>
<ellipse opacity="0.2" cx="970.813" cy="132.925" rx="1.59268" ry="1.69292" fill="#D9D9D9"/>
<ellipse opacity="0.2" cx="1023.41" cy="182.514" rx="1.59268" ry="1.69292" fill="#D9D9D9"/>
<ellipse opacity="0.1" cx="521.595" cy="222.669" rx="1.59268" ry="1.69292" fill="#D9D9D9"/>
<g filter="url(#filter5_f_5_74)">
<ellipse cx="523.188" cy="190.503" rx="1.59268" ry="1.69292" fill="#D9D9D9"/>
</g>
<g filter="url(#filter6_f_5_74)">
<ellipse cx="524.781" cy="170.188" rx="1.59268" ry="1.69292" fill="#D9D9D9"/>
</g>
<ellipse opacity="0.5" cx="13.5927" cy="188.81" rx="1.59268" ry="1.69292" fill="#D9D9D9"/>
<ellipse opacity="0.6" cx="51.1602" cy="153.963" rx="1.59268" ry="1.69292" fill="#D9D9D9"/>
<ellipse opacity="0.2" cx="153.749" cy="134.637" rx="1.59268" ry="1.69292" fill="#D9D9D9"/>
<ellipse opacity="0.5" cx="270.554" cy="128.417" rx="1.59268" ry="1.69292" fill="#D9D9D9"/>
<ellipse opacity="0.6" cx="383.095" cy="149.873" rx="1.59268" ry="1.69292" fill="#D9D9D9"/>
<ellipse opacity="0.4" cx="123.488" cy="227.748" rx="1.59268" ry="1.69292" fill="#D9D9D9"/>
<ellipse opacity="0.3" cx="219.049" cy="249.755" rx="1.59268" ry="1.69292" fill="#D9D9D9"/>
<ellipse opacity="0.8" cx="325.758" cy="234.519" rx="1.59268" ry="1.69292" fill="#D9D9D9"/>
<ellipse opacity="0.7" cx="462.9" cy="223.087" rx="1.59268" ry="1.69292" fill="#D9D9D9"/>
<ellipse opacity="0.2" cx="464.403" cy="132.925" rx="1.59268" ry="1.69292" fill="#D9D9D9"/>
<ellipse opacity="0.2" cx="516.997" cy="182.514" rx="1.59268" ry="1.69292" fill="#D9D9D9"/>
<ellipse opacity="0.1" cx="15.1854" cy="222.669" rx="1.59268" ry="1.69292" fill="#D9D9D9"/>
<g filter="url(#filter7_f_5_74)">
<ellipse cx="16.778" cy="190.503" rx="1.59268" ry="1.69292" fill="#D9D9D9"/>
</g>
<g filter="url(#filter8_f_5_74)">
<ellipse cx="18.3707" cy="170.188" rx="1.59268" ry="1.69292" fill="#D9D9D9"/>
</g>
</g>
<defs>
<filter id="filter0_f_5_74" x="10" y="0" width="1017" height="253.448" filterUnits="userSpaceOnUse" color-interpolation-filters="sRGB">
<feFlood flood-opacity="0" result="BackgroundImageFix"/>
<feBlend mode="normal" in="SourceGraphic" in2="BackgroundImageFix" result="shape"/>
<feGaussianBlur stdDeviation="1" result="effect1_foregroundBlur_5_74"/>
</filter>
<filter id="filter1_f_5_74" x="0.15833" y="49.0592" width="33.2394" height="33.4398" filterUnits="userSpaceOnUse" color-interpolation-filters="sRGB">
<feFlood flood-opacity="0" result="BackgroundImageFix"/>
<feBlend mode="normal" in="SourceGraphic" in2="BackgroundImageFix" result="shape"/>
<feGaussianBlur stdDeviation="7.5135" result="effect1_foregroundBlur_5_74"/>
</filter>
<filter id="filter2_f_5_74" x="1.75101" y="28.7443" width="33.2394" height="33.4398" filterUnits="userSpaceOnUse" color-interpolation-filters="sRGB">
<feFlood flood-opacity="0" result="BackgroundImageFix"/>
<feBlend mode="normal" in="SourceGraphic" in2="BackgroundImageFix" result="shape"/>
<feGaussianBlur stdDeviation="7.5135" result="effect1_foregroundBlur_5_74"/>
</filter>
<filter id="filter3_f_5_74" x="506.568" y="49.0592" width="33.2394" height="33.4398" filterUnits="userSpaceOnUse" color-interpolation-filters="sRGB">
<feFlood flood-opacity="0" result="BackgroundImageFix"/>
<feBlend mode="normal" in="SourceGraphic" in2="BackgroundImageFix" result="shape"/>
<feGaussianBlur stdDeviation="7.5135" result="effect1_foregroundBlur_5_74"/>
</filter>
<filter id="filter4_f_5_74" x="508.161" y="28.7443" width="33.2394" height="33.4398" filterUnits="userSpaceOnUse" color-interpolation-filters="sRGB">
<feFlood flood-opacity="0" result="BackgroundImageFix"/>
<feBlend mode="normal" in="SourceGraphic" in2="BackgroundImageFix" result="shape"/>
<feGaussianBlur stdDeviation="7.5135" result="effect1_foregroundBlur_5_74"/>
</filter>
<filter id="filter5_f_5_74" x="506.568" y="173.783" width="33.2394" height="33.4398" filterUnits="userSpaceOnUse" color-interpolation-filters="sRGB">
<feFlood flood-opacity="0" result="BackgroundImageFix"/>
<feBlend mode="normal" in="SourceGraphic" in2="BackgroundImageFix" result="shape"/>
<feGaussianBlur stdDeviation="7.5135" result="effect1_foregroundBlur_5_74"/>
</filter>
<filter id="filter6_f_5_74" x="508.161" y="153.468" width="33.2394" height="33.4398" filterUnits="userSpaceOnUse" color-interpolation-filters="sRGB">
<feFlood flood-opacity="0" result="BackgroundImageFix"/>
<feBlend mode="normal" in="SourceGraphic" in2="BackgroundImageFix" result="shape"/>
<feGaussianBlur stdDeviation="7.5135" result="effect1_foregroundBlur_5_74"/>
</filter>
<filter id="filter7_f_5_74" x="0.15833" y="173.783" width="33.2394" height="33.4398" filterUnits="userSpaceOnUse" color-interpolation-filters="sRGB">
<feFlood flood-opacity="0" result="BackgroundImageFix"/>
<feBlend mode="normal" in="SourceGraphic" in2="BackgroundImageFix" result="shape"/>
<feGaussianBlur stdDeviation="7.5135" result="effect1_foregroundBlur_5_74"/>
</filter>
<filter id="filter8_f_5_74" x="1.75101" y="153.468" width="33.2394" height="33.4398" filterUnits="userSpaceOnUse" color-interpolation-filters="sRGB">
<feFlood flood-opacity="0" result="BackgroundImageFix"/>
<feBlend mode="normal" in="SourceGraphic" in2="BackgroundImageFix" result="shape"/>
<feGaussianBlur stdDeviation="7.5135" result="effect1_foregroundBlur_5_74"/>
</filter>
</defs>
</svg>
