<svg width="110" height="21" viewBox="0 0 110 21" fill="none" xmlns="http://www.w3.org/2000/svg">
<rect width="110" height="21" fill="#1E1E1E"/>
<g clip-path="url(#clip0_0_1)">
<rect width="1440" height="2583" transform="translate(-39 -22)" fill="#090114"/>
<g opacity="0.5" filter="url(#filter0_f_0_1)">
<circle cx="393" cy="377" r="276" fill="url(#paint0_radial_0_1)"/>
</g>
<mask id="path-2-inside-1_0_1" fill="white">
<path d="M-39 -22H1401V43H-39V-22Z"/>
</mask>
<path d="M-39 -22H1401V43H-39V-22Z" fill="#020B05"/>
<path d="M1401 42H-39V44H1401V42Z" fill="#1B1C1B" mask="url(#path-2-inside-1_0_1)"/>
<path d="M18.6876 18H15.5343L8.93374 11.1994L2.35668 18H-0.808307L7.36889 9.56395L-0.808307 1.1279H2.35668L18.6876 18ZM18.6876 1.1279L11.334 8.69329L9.76911 7.08138L15.5343 1.1279H18.6876ZM33.183 10.7758H19.9347V8.36384H33.183V10.7758ZM64.9858 18H62.5738V13.176H49.1138V10.7758H62.5738V3.53988H53.926C53.1024 3.53988 52.3259 3.70068 51.5964 4.02228C50.8669 4.33603 50.2315 4.76744 49.6903 5.31651C49.1491 5.85774 48.7177 6.49309 48.3961 7.22257C48.0823 7.95204 47.9255 8.7325 47.9255 9.56395V18H45.5135V9.56395C45.5135 8.78741 45.6115 8.04225 45.8076 7.32846C46.0116 6.60682 46.2939 5.93618 46.6548 5.31651C47.0234 4.68901 47.4627 4.12033 47.9725 3.61048C48.4902 3.09279 49.0589 2.64961 49.6786 2.28095C50.3061 1.91229 50.9767 1.62991 51.6905 1.43381C52.4043 1.22987 53.1495 1.1279 53.926 1.1279H64.9858V18ZM86.6936 18H75.8338C74.6651 18 73.6023 17.7804 72.6453 17.3411C71.6884 16.9019 70.8687 16.3018 70.1863 15.541C69.5117 14.7801 68.9901 13.8859 68.6214 12.8584C68.2528 11.8308 68.0684 10.7327 68.0684 9.56395C68.0684 8.40306 68.2528 7.31277 68.6214 6.29307C68.9901 5.26553 69.5117 4.37133 70.1863 3.61048C70.8687 2.84178 71.6884 2.23781 72.6453 1.79855C73.6023 1.35145 74.6651 1.1279 75.8338 1.1279H86.6936V3.53988H75.8338C75.0024 3.53988 74.2533 3.70068 73.5866 4.02228C72.9277 4.33603 72.3669 4.76744 71.9041 5.31651C71.4491 5.85774 71.0962 6.49309 70.8452 7.22257C70.602 7.95204 70.4804 8.7325 70.4804 9.56395C70.4804 10.3954 70.602 11.1798 70.8452 11.9171C71.0962 12.6466 71.4491 13.2859 71.9041 13.8349C72.3669 14.3761 72.9277 14.8036 73.5866 15.1174C74.2533 15.4311 75.0024 15.588 75.8338 15.588H86.6936V18ZM109.237 18H105.989L97.3769 9.32864L92.0353 13.176V18H89.6233V1.1279H92.0353V10.5287L105.26 1.1279H108.778L99.2124 7.99911L109.237 18Z" fill="white"/>
</g>
<defs>
<filter id="filter0_f_0_1" x="-61.9" y="-77.9" width="909.8" height="909.8" filterUnits="userSpaceOnUse" color-interpolation-filters="sRGB">
<feFlood flood-opacity="0" result="BackgroundImageFix"/>
<feBlend mode="normal" in="SourceGraphic" in2="BackgroundImageFix" result="shape"/>
<feGaussianBlur stdDeviation="89.45" result="effect1_foregroundBlur_0_1"/>
</filter>
<radialGradient id="paint0_radial_0_1" cx="0" cy="0" r="1" gradientUnits="userSpaceOnUse" gradientTransform="translate(249 265.5) rotate(69.6143) scale(413.391)">
<stop stop-color="#020B05"/>
<stop offset="1" stop-color="#6639BA"/>
</radialGradient>
<clipPath id="clip0_0_1">
<rect width="1440" height="2583" fill="white" transform="translate(-39 -22)"/>
</clipPath>
</defs>
</svg>
